<?xml version="1.0" encoding="UTF-8" standalone="no"?>
<!-- Created with Inkscape (http://www.inkscape.org/) -->

<svg
   xmlns:dc="http://purl.org/dc/elements/1.1/"
   xmlns:cc="http://creativecommons.org/ns#"
   xmlns:rdf="http://www.w3.org/1999/02/22-rdf-syntax-ns#"
   xmlns:svg="http://www.w3.org/2000/svg"
   xmlns="http://www.w3.org/2000/svg"
   xmlns:sodipodi="http://sodipodi.sourceforge.net/DTD/sodipodi-0.dtd"
   xmlns:inkscape="http://www.inkscape.org/namespaces/inkscape"
   width="200"
   height="200"
   id="svg2"
   version="1.1"
   inkscape:version="0.91 r13725"
   sodipodi:docname="chromecast.svg">
  <defs
     id="defs4" />
  <sodipodi:namedview
     id="base"
     pagecolor="#ffffff"
     bordercolor="#666666"
     borderopacity="1.0"
     inkscape:pageopacity="0.0"
     inkscape:pageshadow="2"
     inkscape:zoom="0.98994949"
     inkscape:cx="-42.023381"
     inkscape:cy="272.78625"
     inkscape:document-units="px"
     inkscape:current-layer="layer1"
     showgrid="false"
     inkscape:window-width="1680"
     inkscape:window-height="1024"
     inkscape:window-x="1920"
     inkscape:window-y="0"
     inkscape:window-maximized="0" />
  <metadata
     id="metadata7">
    <rdf:RDF>
      <cc:Work
         rdf:about="">
        <dc:format>image/svg+xml</dc:format>
        <dc:type
           rdf:resource="http://purl.org/dc/dcmitype/StillImage" />
      </cc:Work>
    </rdf:RDF>
  </metadata>
  <g
     inkscape:label="Layer 1"
     inkscape:groupmode="layer"
     id="layer1"
     transform="translate(0,-852.36218)">
    <g
       id="cast_x5F_icon_x5F_off_x5F_light_2_"
       transform="matrix(0.62786354,0,0,0.62786354,7.8073432,876.49176)">
      <path
         id="path4369"
         d="m 17.275,0 0,95.016 c 7.94,1.614 15.627,3.909 23.033,6.768 l 0,-78.752 230.33,0 0,161.231 -147.853,0 c 2.861,7.407 5.155,15.092 6.771,23.032 l 164.115,0 L 293.671,0 17.275,0 Z"
         inkscape:connector-curvature="0"
         style="clip-rule:evenodd;fill-rule:evenodd" />
      <path
         id="path4371"
         d="m 0,191.527 0,33.044 33.037,0 C 28.87,208.398 16.167,195.701 0,191.527 Z"
         inkscape:connector-curvature="0" />
      <path
         id="path4373"
         d="m 0,150.569 0,23.274 c 25.738,4.734 45.993,24.989 50.728,50.728 l 23.275,0 C 68.864,186.108 38.469,155.709 0,150.569 Z"
         inkscape:connector-curvature="0" />
      <path
         id="path4375"
         d="m 0,109.952 0,23.162 c 48.034,5.32 86.144,43.423 91.458,91.458 l 23.162,0 C 109.143,163.806 60.771,115.435 0,109.952 Z"
         inkscape:connector-curvature="0" />
    </g>
    <g
       id="g1"
       transform="matrix(0.84257812,0,0,0.84257812,101.92811,914.66578)">
      <polygon
         style="fill:#111111;stroke:#111111;stroke-width:5;stroke-linejoin:round"
         points="21.989,47.699 39.389,62.75 39.389,13.769 39.389,13.769 22.235,28.606 6,28.606 6,47.699 "
         id="polygon1" />
      <path
         style="fill:none;stroke:#111111;stroke-width:5;stroke-linecap:round"
         d="m 48.128,49.03 c 1.929,-3.096 3.062,-6.739 3.062,-10.653 0,-3.978 -1.164,-7.674 -3.147,-10.8"
         id="path1"
         inkscape:connector-curvature="0" />
      <path
         style="fill:none;stroke:#111111;stroke-width:5;stroke-linecap:round"
         d="m 55.082,20.537 c 3.695,4.986 5.884,11.157 5.884,17.84 0,6.621 -2.151,12.738 -5.788,17.699"
         id="path2"
         inkscape:connector-curvature="0" />
      <path
         style="fill:none;stroke:#111111;stroke-width:5;stroke-linecap:round"
         d="m 61.71,62.611 c 5.267,-6.666 8.418,-15.08 8.418,-24.233 0,-9.217 -3.192,-17.682 -8.519,-24.368"
         id="path4394"
         inkscape:connector-curvature="0" />
    </g>
  </g>
</svg>
