<?xml version="1.0" encoding="UTF-8" standalone="no"?>
<!-- Created with Inkscape (http://www.inkscape.org/) -->

<svg
   xmlns:dc="http://purl.org/dc/elements/1.1/"
   xmlns:cc="http://creativecommons.org/ns#"
   xmlns:rdf="http://www.w3.org/1999/02/22-rdf-syntax-ns#"
   xmlns:svg="http://www.w3.org/2000/svg"
   xmlns="http://www.w3.org/2000/svg"
   xmlns:sodipodi="http://sodipodi.sourceforge.net/DTD/sodipodi-0.dtd"
   xmlns:inkscape="http://www.inkscape.org/namespaces/inkscape"
   width="200"
   height="200"
   id="svg2"
   version="1.1"
   inkscape:version="0.48.5 r10040"
   sodipodi:docname="vk-symbolic.svg">
  <defs
     id="defs4" />
  <sodipodi:namedview
     id="base"
     pagecolor="#ffffff"
     bordercolor="#666666"
     borderopacity="1.0"
     inkscape:pageopacity="0.0"
     inkscape:pageshadow="2"
     inkscape:zoom="1.4"
     inkscape:cx="-9.0323158"
     inkscape:cy="99.824435"
     inkscape:document-units="px"
     inkscape:current-layer="layer1"
     showgrid="false"
     inkscape:window-width="1248"
     inkscape:window-height="1027"
     inkscape:window-x="2437"
     inkscape:window-y="24"
     inkscape:window-maximized="0" />
  <metadata
     id="metadata7">
    <rdf:RDF>
      <cc:Work
         rdf:about="">
        <dc:format>image/svg+xml</dc:format>
        <dc:type
           rdf:resource="http://purl.org/dc/dcmitype/StillImage" />
      </cc:Work>
    </rdf:RDF>
  </metadata>
  <g
     inkscape:label="Layer 1"
     inkscape:groupmode="layer"
     id="layer1"
     transform="translate(0,-852.36218)">
    <path
       style="opacity:0.98999999;fill:#2f3741;fill-opacity:1;fill-rule:nonzero;stroke:none"
       clip-path="none"
       d="M 108.40625 -0.75 L 94.125 -0.6875 C 42.281417 -0.50000044 0.53125 41.375167 0.53125 93.21875 L 0.53125 107.5 C 0.53125 159.34358 42.281417 200.9375 94.125 200.75 L 108.40625 200.6875 C 160.24983 200.5 201.96875 158.62483 201.96875 106.78125 L 201.96875 92.5 C 201.96875 40.656417 160.24983 -0.93749956 108.40625 -0.75 z M 114.15625 31.625 C 121.10304 31.625136 127.43522 32.498825 133.15625 34.25 C 138.93548 35.943065 143.67003 38.237529 147.40625 41.15625 C 154.93678 46.994072 158.71864 54.416303 158.71875 63.40625 L 158.71875 64.8125 C 158.19325 75.845847 154.00991 85.562542 146.1875 93.96875 C 139.3573 101.26594 130.54966 107.01567 119.75 111.21875 C 110.00098 115.07169 100.76062 117.00005 92.0625 117 L 89.8125 117 C 89.053557 117.00005 88.325483 116.9293 87.625 116.8125 C 82.371034 130.06412 77.534496 139.9618 73.15625 146.5 C 68.83633 152.97986 64.578128 158.25737 60.375 162.34375 C 56.230223 166.37177 52.192505 168.375 48.28125 168.375 C 46.296433 168.375 44.804912 167.93403 43.8125 167 C 42.119572 165.4822 41.281256 164.03018 41.28125 162.6875 C 41.281256 161.34484 41.718101 160.3609 42.59375 159.71875 C 51.408675 153.35567 61.196116 134.68573 71.9375 103.6875 L 77.09375 88.96875 C 83.04817 72.156266 88.105192 61.74687 92.25 57.71875 C 93.709379 56.609698 95.236273 56.031362 96.8125 56.03125 C 98.388629 56.031362 99.738658 56.318468 100.90625 56.84375 C 102.07374 57.310877 103.09304 57.897459 103.96875 58.65625 C 105.95351 60.407668 106.96869 62.477525 106.96875 64.8125 C 106.96869 65.688257 106.56722 66.928044 105.75 68.5625 C 104.93266 70.197154 103.98823 72.34188 102.9375 74.96875 L 91.8125 105.875 C 105.99806 103.30648 117.71386 97.446511 126.9375 88.28125 C 135.57721 79.699917 139.87491 70.861034 139.875 61.8125 C 139.87491 53.231194 136.01818 47.591713 128.3125 44.90625 C 125.68546 43.972342 122.62755 43.531374 119.125 43.53125 C 115.68069 43.531374 112.15056 43.968219 108.53125 44.84375 C 104.91182 45.719527 101.34632 46.849073 97.84375 48.25 C 90.780088 51.11059 85.026243 54.45973 80.53125 58.3125 C 79.363678 59.421772 78.057268 59.968858 76.65625 59.96875 C 75.255174 59.968858 73.944641 59.677628 72.71875 59.09375 C 71.492809 58.510089 70.402759 57.777892 69.46875 56.84375 C 67.308781 54.800668 66.249981 52.726688 66.25 50.625 C 66.249981 48.46517 67.013428 46.536805 68.53125 44.84375 C 70.04903 43.150941 72.052264 41.624047 74.5625 40.28125 C 77.072682 38.880331 79.949605 37.644666 83.21875 36.59375 C 86.487824 35.484719 89.868214 34.571534 93.3125 33.8125 C 100.31769 32.35321 107.2677 31.625136 114.15625 31.625 z "
       transform="translate(0,852.36218)"
       id="rect2991" />
  </g>
</svg>
